ffmpeg version 4.2.7-0ubuntu0.1 Copyright (c) 2000-2022 the FFmpeg developers
  built with gcc 9 (Ubuntu 9.4.0-1ubuntu1~20.04.1)
  configuration: --prefix=/usr --extra-version=0ubuntu0.1 --toolchain=hardened --libdir=/usr/lib/x86_64-linux-gnu --incdir=/usr/include/x86_64-linux-gnu --arch=amd64 --enable-gpl --disable-stripping --enable-avresample --disable-filter=resample --enable-avisynth --enable-gnutls --enable-ladspa --enable-libaom --enable-libass --enable-libbluray --enable-libbs2b --enable-libcaca --enable-libcdio --enable-libcodec2 --enable-libflite --enable-libfontconfig --enable-libfreetype --enable-libfribidi --enable-libgme --enable-libgsm --enable-libjack --enable-libmp3lame --enable-libmysofa --enable-libopenjpeg --enable-libopenmpt --enable-libopus --enable-libpulse --enable-librsvg --enable-librubberband --enable-libshine --enable-libsnappy --enable-libsoxr --enable-libspeex --enable-libssh --enable-libtheora --enable-libtwolame --enable-libvidstab --enable-libvorbis --enable-libvpx --enable-libwavpack --enable-libwebp --enable-libx265 --enable-libxml2 --enable-libxvid --enable-libzmq --enable-libzvbi --enable-lv2 --enable-omx --enable-openal --enable-opencl --enable-opengl --enable-sdl2 --enable-libdc1394 --enable-libdrm --enable-libiec61883 --enable-nvenc --enable-chromaprint --enable-frei0r --enable-libx264 --enable-shared
  libavutil      56. 31.100 / 56. 31.100
  libavcodec     58. 54.100 / 58. 54.100
  libavformat    58. 29.100 / 58. 29.100
  libavdevice    58.  8.100 / 58.  8.100
  libavfilter     7. 57.100 /  7. 57.100
  libavresample   4.  0.  0 /  4.  0.  0
  libswscale      5.  5.100 /  5.  5.100
  libswresample   3.  5.100 /  3.  5.100
  libpostproc    55.  5.100 / 55.  5.100
Routing option strict to both codec and muxer layer
[h264 @ 0x55eee314ba80] Reinit context to 480x848, pix_fmt: yuv420p
Input #0, mov,mp4,m4a,3gp,3g2,mj2, from '/var/www/html/project/media/video/original/video_2025-09-17_10-54-21_HhcIftU.mp4':
  Metadata:
    major_brand     : isom
    minor_version   : 512
    compatible_brands: isomiso2avc1mp41
    creation_time   : 2025-09-17T03:59:32.000000Z
  Duration: 00:00:12.47, start: 0.000000, bitrate: 2140 kb/s
    Stream #0:0(eng): Audio: aac (LC) (mp4a / 0x6134706D), 44100 Hz, stereo, fltp, 61 kb/s (default)
    Metadata:
      creation_time   : 2025-09-17T03:59:21.000000Z
      handler_name    : SoundHandle
    Stream #0:1(eng): Video: h264 (High), 1 reference frame (avc1 / 0x31637661), yuv420p(tv, smpte170m/bt470bg/smpte170m, left), 480x848, 2082 kb/s, 29.97 fps, 31.58 tbr, 90k tbn, 180k tbc (default)
    Metadata:
      creation_time   : 2025-09-17T03:59:21.000000Z
      handler_name    : VideoHandle
Input #1, png_pipe, from '/var/www/html/project/static/images/templates/logo_vertical.png':
  Duration: N/A, bitrate: N/A
    Stream #1:0: Video: png, 1 reference frame, rgba(pc), 1920x1080 [SAR 2835:2835 DAR 16:9], 25 tbr, 25 tbn, 25 tbc
[Parsed_scale_1 @ 0x55eee3191e00] w:1280 h:720 flags:'bilinear' interl:0
[Parsed_scale_4 @ 0x55eee31a1680] w:-1 h:720 flags:'bilinear' interl:0
[Parsed_scale_6 @ 0x55eee3161a00] w:1280 h:720 flags:'bilinear' interl:0
Stream mapping:
  Stream #0:1 (h264) -> split (graph 0)
  Stream #1:0 (png) -> scale (graph 0)
  overlay (graph 0) -> Stream #0:0 (libx264)
  Stream #0:0 -> #0:1 (aac (native) -> aac (native))
Press [q] to stop, [?] for help
[graph_1_in_0_0 @ 0x55eee3519540] tb:1/44100 samplefmt:fltp samplerate:44100 chlayout:0x3
[h264 @ 0x55eee31745c0] Reinit context to 480x848, pix_fmt: yuv420p
[Parsed_scale_1 @ 0x55eee3832c80] w:1280 h:720 flags:'bilinear' interl:0
[Parsed_scale_4 @ 0x55eee38358c0] w:-1 h:720 flags:'bilinear' interl:0
[Parsed_scale_6 @ 0x55eee3837040] w:1280 h:720 flags:'bilinear' interl:0
[graph 0 input from stream 0:1 @ 0x55eee38341c0] w:480 h:848 pixfmt:yuv420p tb:1/90000 fr:600/19 sar:0/1 sws_param:flags=2
[graph 0 input from stream 1:0 @ 0x55eee3838600] w:1920 h:1080 pixfmt:rgba tb:1/25 fr:25/1 sar:2835/2835 sws_param:flags=2
[Parsed_scale_1 @ 0x55eee3832c80] w:480 h:848 fmt:yuv420p sar:0/1 -> w:1280 h:720 fmt:yuv420p sar:0/1 flags:0x2
[Parsed_boxblur_2 @ 0x55eee3832ac0] luma_radius:36 luma_power:1 chroma_radius:18 chroma_power:1 alpha_radius:36 alpha_power:1 w:1280 chroma_w:640 h:720 chroma_h:360
[Parsed_setsar_3 @ 0x55eee3834ac0] w:1280 h:720 sar:0/1 dar:16/9 -> sar:1/1 dar:16/9
[Parsed_scale_4 @ 0x55eee38358c0] w:480 h:848 fmt:yuv420p sar:0/1 -> w:408 h:720 fmt:yuva420p sar:0/1 flags:0x2
[Parsed_setsar_5 @ 0x55eee3836440] w:408 h:720 sar:0/1 dar:17/30 -> sar:1/1 dar:17/30
[Parsed_overlay_8 @ 0x55eee38387c0] main w:1280 h:720 fmt:yuv420p overlay w:408 h:720 fmt:yuva420p
[Parsed_overlay_8 @ 0x55eee38387c0] [framesync @ 0x55eee38388e8] Selected 1/90000 time base
[Parsed_overlay_8 @ 0x55eee38387c0] [framesync @ 0x55eee38388e8] Sync level 2
[Parsed_scale_6 @ 0x55eee3837040] w:1920 h:1080 fmt:rgba sar:2835/2835 -> w:1280 h:720 fmt:yuva420p sar:1/1 flags:0x2
[Parsed_setsar_7 @ 0x55eee3837b80] w:1280 h:720 sar:1/1 dar:16/9 -> sar:1/1 dar:16/9
[Parsed_overlay_9 @ 0x55eee3838080] main w:1280 h:720 fmt:yuv420p overlay w:1280 h:720 fmt:yuva420p
[Parsed_overlay_9 @ 0x55eee3838080] [framesync @ 0x55eee3837728] Selected 1/90000 time base
[Parsed_overlay_9 @ 0x55eee3838080] [framesync @ 0x55eee3837728] Sync level 2
[libx264 @ 0x55eee318e940] using SAR=1/1
[libx264 @ 0x55eee318e940] using cpu capabilities: MMX2 SSE2Fast SSSE3 SSE4.2 AVX FMA3 BMI2 AVX2
[libx264 @ 0x55eee318e940] profile High, level 3.2
[libx264 @ 0x55eee318e940] 264 - core 155 r2917 0a84d98 - H.264/MPEG-4 AVC codec - Copyleft 2003-2018 - http://www.videolan.org/x264.html - options: cabac=1 ref=1 deblock=1:0:0 analyse=0x3:0x113 me=hex subme=2 psy=1 psy_rd=1.00:0.00 mixed_ref=0 me_range=16 chroma_me=1 trellis=0 8x8dct=1 cqm=0 deadzone=21,11 fast_pskip=1 chroma_qp_offset=0 threads=22 lookahead_threads=5 sliced_threads=0 nr=0 decimate=1 interlaced=0 bluray_compat=0 constrained_intra=0 bframes=3 b_pyramid=2 b_adapt=1 b_bias=0 direct=1 weightb=1 open_gop=0 weightp=1 keyint=250 keyint_min=25 scenecut=40 intra_refresh=0 rc_lookahead=10 rc=crf mbtree=1 crf=18.0 qcomp=0.60 qpmin=0 qpmax=69 qpstep=4 ip_ratio=1.40 aq=1:1.00
Output #0, mp4, to '/var/www/html/project/media/video/watermarks/video_2025-09-17_10-54-21_HhcIftU.mp4':
  Metadata:
    major_brand     : isom
    minor_version   : 512
    compatible_brands: isomiso2avc1mp41
    encoder         : Lavf58.29.100
    Stream #0:0: Video: h264 (libx264), 1 reference frame (avc1 / 0x31637661), yuv420p, 1280x720 [SAR 1:1 DAR 16:9], q=-1--1, 31.58 fps, 19200 tbn, 31.58 tbc (default)
    Metadata:
      encoder         : Lavc58.54.100 libx264
    Side data:
      cpb: bitrate max/min/avg: 0/0/0 buffer size: 0 vbv_delay: -1
    Stream #0:1(eng): Audio: aac (LC) (mp4a / 0x6134706D), 44100 Hz, stereo, fltp, delay 1024, 128 kb/s (default)
    Metadata:
      creation_time   : 2025-09-17T03:59:21.000000Z
      handler_name    : SoundHandle
      encoder         : Lavc58.54.100 aac
[Parsed_overlay_8 @ 0x55eee38387c0] [framesync @ 0x55eee38388e8] Sync level 1
[Parsed_overlay_8 @ 0x55eee38387c0] [framesync @ 0x55eee38388e8] Sync level 0
[Parsed_overlay_9 @ 0x55eee3838080] [framesync @ 0x55eee3837728] Sync level 0
No more output streams to write to, finishing.
frame=  372 fps= 61 q=-1.0 Lsize=    2985kB time=00:00:12.46 bitrate=1961.3kbits/s speed=2.04x    
[AVIOContext @ 0x55eee3147d00] Statistics: 0 seeks, 13 writeouts
video:2770kB audio:201kB subtitle:0kB other streams:0kB global headers:0kB muxing overhead: 0.479472%
Input file #0 (/var/www/html/project/media/video/original/video_2025-09-17_10-54-21_HhcIftU.mp4):
  Input stream #0:0 (audio): 537 packets read (96400 bytes); 537 frames decoded (549888 samples); 
  Input stream #0:1 (video): 372 packets read (3230768 bytes); 372 frames decoded; 
  Total: 909 packets (3327168 bytes) demuxed
Input file #1 (/var/www/html/project/static/images/templates/logo_vertical.png):
  Input stream #1:0 (video): 1 packets read (93903 bytes); 1 frames decoded; 
  Total: 1 packets (93903 bytes) demuxed
Output file #0 (/var/www/html/project/media/video/watermarks/video_2025-09-17_10-54-21_HhcIftU.mp4):
  Output stream #0:0 (video): 372 frames encoded; 372 packets muxed (2836093 bytes); 
  Output stream #0:1 (audio): 537 frames encoded (549888 samples); 538 packets muxed (206215 bytes); 
  Total: 910 packets (3042308 bytes) muxed
[AVIOContext @ 0x55eee318e4c0] Statistics: 2 seeks, 15 writeouts
[libx264 @ 0x55eee318e940] frame I:2     Avg QP:13.69  size: 45972
[libx264 @ 0x55eee318e940] frame P:94    Avg QP:15.61  size: 16065
[libx264 @ 0x55eee318e940] frame B:276   Avg QP:17.38  size:  4469
[libx264 @ 0x55eee318e940] consecutive B-frames:  1.1%  0.0%  0.0% 98.9%
[libx264 @ 0x55eee318e940] mb I  I16..4: 45.1% 31.9% 23.1%
[libx264 @ 0x55eee318e940] mb P  I16..4: 28.5% 13.5%  1.5%  P16..4: 25.0% 10.8%  4.2%  0.0%  0.0%    skip:16.5%
[libx264 @ 0x55eee318e940] mb B  I16..4:  2.7%  0.9%  0.0%  B16..8: 19.2%  5.7%  0.3%  direct:15.8%  skip:55.3%  L0:45.3% L1:46.2% BI: 8.4%
[libx264 @ 0x55eee318e940] 8x8 transform intra:30.0% inter:35.0%
[libx264 @ 0x55eee318e940] coded y,uvDC,uvAC intra: 19.2% 41.4% 11.8% inter: 5.1% 30.5% 0.9%
[libx264 @ 0x55eee318e940] i16 v,h,dc,p: 56% 24%  6% 14%
[libx264 @ 0x55eee318e940] i8 v,h,dc,ddl,ddr,vr,hd,vl,hu: 17% 46% 17%  3%  3%  3%  5%  2%  3%
[libx264 @ 0x55eee318e940] i4 v,h,dc,ddl,ddr,vr,hd,vl,hu: 36% 26% 15%  3%  4%  5%  4%  3%  3%
[libx264 @ 0x55eee318e940] i8c dc,h,v,p: 54% 26% 11%  9%
[libx264 @ 0x55eee318e940] Weighted P-Frames: Y:0.0% UV:0.0%
[libx264 @ 0x55eee318e940] kb/s:1827.33
[aac @ 0x55eee315f580] Qavg: 473.743
[AVIOContext @ 0x55eee3150cc0] Statistics: 3378804 bytes read, 2 seeks
[AVIOContext @ 0x55eee3159140] Statistics: 93903 bytes read, 0 seeks
